<svg xmlns="http://www.w3.org/2000/svg" viewBox="0 0 24 24"><defs><style>.cls-1{fill:#1da1f2;}.cls-2{fill:#fff;}</style></defs><title>twitter</title><g id="Layer_2" data-name="Layer 2"><g id="twitter"><g id="Dark_Blue" data-name="Dark Blue"><path class="cls-1" d="M21,24H3a3,3,0,0,1-3-3V3A3,3,0,0,1,3,0H21a3,3,0,0,1,3,3V21A3,3,0,0,1,21,24Z"/></g><g id="Logo_FIXED" data-name="Logo — FIXED"><path class="cls-2" d="M9.22,18.1A8.71,8.71,0,0,0,18,9.34c0-.13,0-.26,0-.39a6.33,6.33,0,0,0,1.54-1.6,6.19,6.19,0,0,1-1.77.49,3.13,3.13,0,0,0,1.36-1.71,6.13,6.13,0,0,1-2,.75A3.07,3.07,0,0,0,11.81,9a3.19,3.19,0,0,0,.08.7A8.72,8.72,0,0,1,5.54,6.47a3.1,3.1,0,0,0,1,4.11,3.07,3.07,0,0,1-1.39-.39v.05a3.08,3.08,0,0,0,2.46,3,2.73,2.73,0,0,1-.81.11,3.45,3.45,0,0,1-.57,0,3.07,3.07,0,0,0,2.87,2.13,6.16,6.16,0,0,1-3.82,1.32,5.85,5.85,0,0,1-.73,0A8.67,8.67,0,0,0,9.22,18.1"/></g></g></g></svg>