<svg xmlns="http://www.w3.org/2000/svg" viewBox="0 0 16 14.04"><defs><style>.cls-1{fill:#51c332;}</style></defs><title>wechat</title><g id="Layer_2" data-name="Layer 2"><g id="Layer_1-2" data-name="Layer 1"><g id="_371-wechat" data-name="371-wechat"><path class="cls-1" d="M11,4a8.67,8.67,0,0,1,.89.06C11.36,1.75,8.93,0,6,0,2.69,0,0,2.24,0,5A4.74,4.74,0,0,0,2.29,8.94L1.5,10.53,3.65,9.6A7.1,7.1,0,0,0,5.11,10,4.26,4.26,0,0,1,5,9C5,6.26,7.69,4,11,4ZM8,2.26A.75.75,0,1,1,7.25,3,.75.75,0,0,1,8,2.26ZM4,3.76A.75.75,0,1,1,4.75,3,.76.76,0,0,1,4,3.76Z"/><path class="cls-1" d="M16,9c0-2.21-2.24-4-5-4S6,6.81,6,9s2.24,4,5,4a6.09,6.09,0,0,0,1.3-.15L15,14l-.93-1.87A3.77,3.77,0,0,0,16,9ZM9.5,8.77A.75.75,0,1,1,10.25,8,.75.75,0,0,1,9.5,8.77Zm3,0A.75.75,0,1,1,13.25,8,.75.75,0,0,1,12.5,8.77Z"/></g></g></g></svg>