<svg xmlns="http://www.w3.org/2000/svg" viewBox="0 0 24 24"><defs><style>.cls-1{fill:#da0100;}.cls-2{fill:#fff;}</style></defs><title>youtube</title><g id="Layer_2" data-name="Layer 2"><g id="youtube"><rect class="cls-1" width="24" height="24" rx="3" ry="3"/><path class="cls-2" d="M19.67,8.12A2,2,0,0,0,18.25,6.7,47,47,0,0,0,12,6.36a47,47,0,0,0-6.25.34A2,2,0,0,0,4.33,8.12,21.42,21.42,0,0,0,4,12a21.42,21.42,0,0,0,.33,3.88A2,2,0,0,0,5.75,17.3a47,47,0,0,0,6.25.34,47,47,0,0,0,6.25-.34,2,2,0,0,0,1.42-1.42A21.42,21.42,0,0,0,20,12,21.42,21.42,0,0,0,19.67,8.12Zm-9.31,6.26V9.62L14.55,12Z"/></g></g></svg>