<svg xmlns="http://www.w3.org/2000/svg" viewBox="0 0 16 12.87"><defs><style>.cls-1{fill:#d52a2c;}.cls-2{fill:#e99315;}.cls-3{fill:none;}</style></defs><title>weibo</title><g id="Layer_2" data-name="Layer 2"><g id="Layer_1-2" data-name="Layer 1"><path class="cls-1" d="M11.94,6.19c-.23-.07-.37-.11-.26-.4.82-2.12-1.07-2.64-3.54-1.6,0,0-.51.22-.38-.19.92-2.95-2.3-2.91-5.39.18A6.87,6.87,0,0,0,0,8.64c0,2.64,3.37,4.23,6.67,4.23C13,12.87,16.15,7.51,11.94,6.19ZM6.78,11.93c-2.63.26-4.9-.93-5.07-2.66s1.82-3.33,4.45-3.6,4.91.93,5.07,2.66S9.41,11.67,6.78,11.93Z"/><path class="cls-2" d="M13.73,4.84a2,2,0,0,0-2.37-2.63.52.52,0,1,0,.22,1,1,1,0,0,1,1.16,1.3A.52.52,0,0,0,13.73,4.84Z"/><path class="cls-2" d="M10.91.1a.6.6,0,1,0,.25,1.18,3,3,0,0,1,3.47,3.85.61.61,0,0,0,1.16.38A4.2,4.2,0,0,0,10.91.1Z"/><path class="cls-3" d="M5.79,8.82a1,1,0,0,0-1.18.4.71.71,0,0,0,.27,1.06,1,1,0,0,0,1.21-.4A.71.71,0,0,0,5.79,8.82Z"/><path class="cls-3" d="M6.36,8.57a.27.27,0,0,0,.11.4.38.38,0,0,0,.45-.17.27.27,0,0,0-.12-.4A.39.39,0,0,0,6.36,8.57Z"/><path d="M7,7A2.88,2.88,0,0,0,3.83,8.4a2,2,0,0,0,1.25,2.79A2.84,2.84,0,0,0,8.47,9.75,2,2,0,0,0,7,7Zm-1,2.88a1,1,0,0,1-1.21.4.71.71,0,0,1-.27-1.06,1,1,0,0,1,1.18-.4A.71.71,0,0,1,6.09,9.88ZM6.92,8.8A.38.38,0,0,1,6.47,9a.27.27,0,0,1-.11-.4A.39.39,0,0,1,6.8,8.4.27.27,0,0,1,6.92,8.8Z"/></g></g></svg>