<svg xmlns="http://www.w3.org/2000/svg" viewBox="0 0 23.98 24"><defs><style>.cls-1{fill:#fff;}.cls-2{fill:#e60019;}</style></defs><title>pinterest</title><g id="Layer_2" data-name="Layer 2"><g id="pinterest"><g id="art"><circle class="cls-1" cx="11.99" cy="11.99" r="11.99"/><path class="cls-2" d="M12,0A12,12,0,0,0,7.62,23.16a11.36,11.36,0,0,1,0-3.44l1.4-6A4.33,4.33,0,0,1,8.7,12c0-1.67,1-2.91,2.18-2.91a1.5,1.5,0,0,1,1.51,1.69,24.22,24.22,0,0,1-1,4,1.74,1.74,0,0,0,1.77,2.17c2.14,0,3.77-2.25,3.77-5.48a4.73,4.73,0,0,0-5-4.88,5.2,5.2,0,0,0-5.42,5.2A4.74,4.74,0,0,0,7.4,14.5a.34.34,0,0,1,.08.34c-.09.38-.3,1.2-.34,1.36s-.17.27-.4.16c-1.5-.7-2.44-2.88-2.44-4.65,0-3.78,2.75-7.25,7.93-7.25,4.15,0,7.39,3,7.39,6.93,0,4.13-2.61,7.46-6.22,7.46a3.18,3.18,0,0,1-2.74-1.38s-.6,2.29-.75,2.85a13.28,13.28,0,0,1-1.49,3.15A12.2,12.2,0,0,0,12,24,12,12,0,0,0,12,0Z"/></g></g></g></svg>