<svg xmlns="http://www.w3.org/2000/svg" viewBox="0 0 24 24"><defs><style>.cls-1{fill:#54585a;}</style></defs><title>language</title><g id="Layer_2" data-name="Layer 2"><g id="language"><path class="cls-1" d="M14.45.25l2,2.33L13.5,4.31v1l-.86-.09L12,5.7l0,.68L10.73,7.65,11.06,9l.09.17.19.25-.4.05-.44-.38V8.51l-.33-.78L8,7.5,7.33,9.31,8,10.5h.32L9,9.72l.44.09-.17.86.68.18L10.15,12h-.4l-.51-.86-.69.19L6.13,10,5.37,9h-1L1.85,5.61A12,12,0,0,0,12,24V22.61l.79-5-1.14-.51-1.43-3,.28-.77V12h.88l1.2-.66.84.25L15,12l.11,1.46h2.34l2.31,1.74-.67.91-.2,1.63L13.7,23.45a1.85,1.85,0,0,1,.12.4A12,12,0,0,0,14.45.25Z"/><path class="cls-1" d="M9.75,1.07l1.11,1.3.9-1.3L12,.79V0A12,12,0,0,0,8.37.56l.18.16Z"/></g></g></svg>