<svg id="Layer_1" data-name="Layer 1" xmlns="http://www.w3.org/2000/svg" viewBox="0 0 218.12 225.34"><defs><style>.cls-1{fill:#231f20;}.cls-2{fill:#5190cc;}</style></defs><title>icon-dox</title><path class="cls-1" d="M787.1,308.9h-18a5.59,5.59,0,0,0-5.6,5.6v69.1l-1.7-2.2c-12-15.8-26.9-23.5-45.4-23.5-30.8,0-61.9,23.8-61.9,69.4v.5c0,45,31.9,69.4,61.9,69.4,18.6,0,33.5-8.2,45.4-25l1.7-2.4v19a5.59,5.59,0,0,0,5.6,5.6h18a5.59,5.59,0,0,0,5.6-5.6V314.5A5.59,5.59,0,0,0,787.1,308.9ZM683.9,427.8v-.5c0-25.7,16.8-44.3,39.9-44.3,22.9,0,40.2,19,40.2,44.3v.5c0,24.8-17.6,44.3-40.2,44.3S683.9,453,683.9,427.8Z" transform="translate(-574.58 -271.86)"/><path class="cls-2" d="M616,395.9c-.7-7.8-.5-17.2,3.2-30.1,3.1-10.4,10.5-21.9,19.1-30a70.31,70.31,0,0,1,32.2-16.9,84.38,84.38,0,0,1,29.2-1.6,2.94,2.94,0,0,1,2.3,1,3.07,3.07,0,0,1,.5,3.1,3.79,3.79,0,0,1-2.4.8c-16.3,1-33.8,9.8-50.6,25.6-15.4,14.5-26.4,32.9-28.5,48.8a3.53,3.53,0,0,1-1,2.3,3,3,0,0,1-3.1-.5A5.24,5.24,0,0,1,616,395.9Z" transform="translate(-574.58 -271.86)"/><path class="cls-2" d="M575,377.3c-.9-10.3-.7-22.9,4.3-40.1,4.1-13.9,13.9-29.1,25.4-39.9a94.19,94.19,0,0,1,42.9-22.5,114.62,114.62,0,0,1,38.8-2.2,4.48,4.48,0,0,1,3.1,1.3c1,1.1,1.2,3.5.6,4.1a5.61,5.61,0,0,1-3.1,1.1c-21.7,1.4-45,13.1-67.3,34.1-20.6,19.4-35.2,43.8-38,65a5.94,5.94,0,0,1-1.3,3.1c-.6.6-3.1.4-4.2-.7A5.09,5.09,0,0,1,575,377.3Z" transform="translate(-574.58 -271.86)"/></svg>