<svg id="Layer_1" data-name="Layer 1" xmlns="http://www.w3.org/2000/svg" viewBox="0 0 144 144"><defs><style>.cls-1{fill:#0065a1;}.cls-2{fill:#fff;}</style></defs><title>icon-ln</title><path class="cls-1" d="M744.34,312H621.63A10.51,10.51,0,0,0,611,322.38V445.61A10.52,10.52,0,0,0,621.63,456H744.34A10.54,10.54,0,0,0,755,445.61V322.38A10.53,10.53,0,0,0,744.34,312Z" transform="translate(-611 -312)"/><path class="cls-2" d="M632.35,366h21.36v68.72H632.35ZM643,331.83a12.38,12.38,0,1,1-12.39,12.38A12.39,12.39,0,0,1,643,331.83" transform="translate(-611 -312)"/><path class="cls-2" d="M667.1,366h20.49v9.39h.28c2.85-5.4,9.82-11.1,20.21-11.1,21.63,0,25.62,14.23,25.62,32.74v37.7H712.36V401.29c0-8-.15-18.22-11.1-18.22-11.11,0-12.82,8.68-12.82,17.65v34H667.1Z" transform="translate(-611 -312)"/></svg>